<?xml version="1.0" standalone="no"?>
<!DOCTYPE svg PUBLIC "-//W3C//DTD SVG 20010904//EN"
 "http://www.w3.org/TR/2001/REC-SVG-20010904/DTD/svg10.dtd">
<svg version="1.0" xmlns="http://www.w3.org/2000/svg"
 width="128.000000pt" height="128.000000pt" viewBox="0 0 128.000000 128.000000"
 preserveAspectRatio="xMidYMid meet">
<metadata>
Created by potrace 1.11, written by Peter Selinger 2001-2013
</metadata>
<g transform="translate(0.000000,128.000000) scale(0.100000,-0.100000)"
fill="#000000" stroke="none">
<path d="M792 1125 c2 -36 1 -65 -2 -65 -3 0 -14 14 -23 30 -10 17 -23 30 -29
30 -6 0 -16 7 -23 16 -9 13 -21 15 -58 10 -26 -4 -47 -11 -47 -15 0 -4 -19
-17 -43 -29 -23 -11 -51 -29 -62 -39 -11 -10 -36 -29 -55 -43 -19 -13 -37 -27
-40 -30 -9 -11 -175 -145 -215 -175 -22 -16 -45 -34 -51 -40 -6 -5 -41 -37
-77 -69 -37 -33 -67 -62 -67 -66 0 -7 26 -10 129 -13 l74 -2 3 -85 c2 -47 6
-101 8 -122 3 -20 1 -50 -4 -67 -5 -17 -5 -31 0 -31 9 0 5 -147 -5 -172 -4
-11 -3 -18 4 -18 7 0 11 -8 9 -17 -3 -20 9 -20 145 -10 37 3 70 1 73 -4 3 -5
15 -7 27 -4 12 3 39 7 61 9 41 5 59 16 39 23 -7 3 -12 17 -12 31 1 17 3 21 6
10 2 -10 8 -18 12 -18 4 0 6 56 5 125 l-4 125 73 -4 c39 -3 77 -6 82 -6 18 0
17 -61 -1 -88 -15 -22 -15 -24 -1 -19 12 4 17 -2 19 -26 4 -33 -13 -79 -41
-111 -16 -19 -15 -19 14 0 24 15 27 15 17 3 -10 -14 -9 -18 10 -24 44 -14 64
-16 194 -20 l131 -5 1 123 c3 211 9 364 15 374 4 6 35 8 72 6 43 -2 65 1 65 8
0 6 -7 9 -15 6 -8 -4 -16 -3 -19 1 -9 16 48 11 66 -5 26 -23 32 -11 8 17 -11
13 -20 26 -20 29 0 3 -39 46 -86 95 -47 49 -97 106 -111 127 -30 46 -38 49
-28 12 6 -26 5 -27 -11 -11 -17 17 -24 86 -25 241 l0 67 -95 0 -96 0 4 -65z
m68 34 c0 -5 5 -7 12 -3 7 4 8 3 4 -4 -8 -13 52 -134 63 -128 3 2 6 -16 7 -41
l0 -45 -18 24 c-10 12 -16 29 -13 35 2 7 -1 12 -8 10 -7 -1 -11 6 -11 16 1 9
-3 17 -9 17 -6 0 -8 3 -4 6 5 6 -40 104 -48 104 -2 0 1 -14 6 -32 6 -22 5 -28
-2 -21 -15 15 -18 46 -6 61 12 15 27 16 27 1z m70 -21 c20 -33 27 -88 12 -88
-13 0 -55 97 -48 109 11 16 14 14 36 -21z m30 2 c0 -11 -2 -20 -5 -20 -2 0 -9
9 -15 20 -9 16 -8 20 5 20 8 0 15 -9 15 -20z m-290 -7 c-1 -11 -72 -64 -78
-58 -6 5 59 65 71 65 4 0 7 -3 7 -7z m25 -33 c-3 -5 1 -10 9 -10 9 0 16 -4 16
-9 0 -5 -9 -7 -19 -4 -10 3 -30 -1 -42 -7 l-24 -13 24 27 c24 25 49 37 36 16z
m169 -35 c3 -8 1 -15 -4 -15 -6 0 -10 5 -10 11 0 5 -5 7 -12 3 -7 -4 -8 -3 -4
4 10 16 23 15 30 -3z m-224 -20 c0 -12 -64 -64 -69 -56 -4 5 -29 -11 -56 -36
-28 -25 -63 -55 -80 -66 -28 -20 -29 -20 -15 -2 8 11 18 22 21 25 49 41 105
88 115 98 15 14 28 16 19 2 -11 -18 5 -10 33 15 28 26 32 29 32 20z m118 -20
c-4 -11 -38 -15 -38 -4 0 8 21 18 33 15 5 -1 7 -6 5 -11z m-130 -54 c-6 -11
-18 -17 -25 -14 -8 3 -13 -2 -13 -15 0 -11 -16 -34 -36 -51 -19 -17 -33 -35
-30 -40 3 -5 -2 -15 -12 -22 -15 -13 -16 -12 -3 4 9 11 10 17 2 17 -6 0 -14
-7 -17 -15 -7 -17 -24 -21 -24 -5 0 13 48 59 54 52 3 -3 6 2 6 11 0 10 6 14
13 11 8 -3 20 2 27 11 8 9 8 15 2 15 -6 0 -14 -5 -17 -10 -4 -6 -10 -8 -15 -5
-5 3 -18 -2 -28 -12 -10 -10 -34 -26 -53 -36 l-34 -18 33 28 c19 15 50 42 70
60 20 17 39 30 41 27 3 -2 -4 -11 -15 -18 -10 -8 -16 -17 -13 -20 3 -3 23 12
45 33 39 39 63 46 42 12z m176 14 c-4 -11 1 -15 17 -15 24 -1 24 -1 4 -16 -45
-33 -55 -45 -55 -63 0 -10 -35 -54 -77 -97 -42 -44 -73 -72 -69 -64 4 8 -1 5
-11 -8 -15 -18 -21 -20 -31 -10 -10 10 -16 9 -29 -5 -16 -16 -16 -17 0 -17 9
0 17 5 17 11 0 5 5 7 10 4 15 -9 12 -25 -6 -25 -8 0 -12 -4 -9 -10 3 -5 -1
-10 -9 -10 -9 0 -16 -5 -16 -11 0 -5 6 -7 13 -3 7 4 9 3 4 -2 -5 -5 -13 -9
-18 -9 -5 0 -9 -3 -9 -7 0 -5 0 -13 0 -19 0 -7 10 -5 25 5 31 20 41 21 25 1
-7 -8 -16 -15 -20 -15 -5 0 -23 -15 -41 -32 -20 -21 -34 -28 -36 -21 -4 10
-10 10 -26 1 -20 -10 -21 -10 -8 5 10 13 11 17 1 17 -7 0 13 24 44 54 62 60
63 86 2 30 -21 -19 -42 -34 -47 -32 -13 4 0 18 61 68 30 24 65 56 78 70 55 61
118 120 127 120 6 0 -8 -17 -30 -38 -22 -20 -40 -39 -40 -42 0 -3 -15 -21 -34
-39 -18 -18 -31 -34 -29 -36 10 -10 178 165 184 191 7 27 6 28 -12 14 -19 -14
-19 -14 0 8 11 12 15 22 11 22 -4 0 0 9 10 20 21 24 37 26 29 5z m-68 -30
c-43 -33 -77 -67 -72 -72 3 -4 14 1 23 9 10 8 25 18 33 22 8 4 -1 -6 -20 -23
-42 -36 -48 -38 -46 -10 1 20 72 89 91 89 5 0 1 -7 -9 -15z m119 -5 c-3 -5 -1
-10 5 -10 7 0 9 -7 6 -16 -4 -12 -2 -15 9 -10 29 11 15 -12 -25 -39 -22 -15
-40 -32 -40 -36 0 -5 -6 -9 -12 -9 -7 0 4 17 25 36 21 20 36 38 33 41 -3 4
-15 -2 -26 -12 -11 -10 -23 -16 -26 -13 -3 3 7 15 21 26 14 11 25 24 24 29 -2
13 1 23 7 23 3 0 2 -4 -1 -10z m-445 -14 c0 -3 -4 -8 -10 -11 -5 -3 -10 -1
-10 4 0 6 5 11 10 11 6 0 10 -2 10 -4z m234 -21 c-10 -8 -16 -15 -12 -15 4 0
-15 -21 -43 -47 -29 -27 -69 -65 -90 -86 -37 -37 -65 -38 -30 -1 9 11 16 26
14 34 -3 11 -2 12 4 3 6 -9 25 1 66 34 50 39 56 47 45 62 -10 13 -10 14 1 4
11 -10 18 -7 34 13 10 14 22 23 25 19 3 -3 -3 -12 -14 -20z m256 -31 c-8 -8
-23 -20 -34 -25 -13 -7 -9 -1 9 15 34 29 43 33 25 10z m-260 -8 c0 -2 -8 -10
-17 -17 -16 -13 -17 -12 -4 4 13 16 21 21 21 13z m257 -49 c-18 -15 -32 -33
-32 -38 0 -6 -10 -21 -23 -34 -15 -15 -18 -25 -10 -27 8 -3 7 -6 -4 -10 -23
-9 -17 16 12 47 32 34 14 32 -23 -2 -17 -16 -26 -21 -22 -13 5 8 17 21 27 28
10 7 16 18 12 23 -3 5 0 8 8 7 7 -2 12 2 11 9 -1 6 5 17 15 25 15 12 16 11 3
-4 -7 -10 -9 -18 -3 -18 12 0 34 25 27 31 -2 3 4 5 15 5 15 0 13 -5 -13 -29z
m-247 19 c0 -2 -7 -7 -16 -10 -8 -3 -12 -2 -9 4 6 10 25 14 25 6z m355 -37
c-4 -5 -12 -9 -18 -9 -7 0 -34 -18 -61 -40 -52 -43 -56 -45 -56 -30 0 6 7 10
16 10 9 0 12 5 8 12 -4 6 -3 9 2 5 5 -3 29 12 54 33 40 34 70 45 55 19z m-270
-9 c-3 -5 -1 -10 6 -10 7 0 -4 -16 -24 -37 -20 -20 -35 -39 -32 -41 3 -3 20 9
38 26 39 38 42 39 44 12 1 -11 -4 -20 -10 -19 -17 3 -47 -12 -47 -23 0 -5 4
-7 9 -4 21 14 6 -45 -18 -66 l-26 -23 23 26 c32 37 27 48 -8 14 -16 -16 -30
-24 -30 -19 0 6 12 21 26 33 14 12 23 26 19 29 -4 4 -10 1 -12 -5 -3 -7 -9
-13 -15 -13 -6 0 -8 7 -4 15 3 8 1 15 -3 15 -5 0 -11 -7 -15 -15 -3 -8 0 -15
6 -15 6 0 5 -6 -3 -16 -8 -9 -14 -22 -14 -29 0 -18 -64 -89 -72 -81 -4 4 3 16
17 26 14 10 22 21 19 24 -3 3 -38 -26 -78 -65 -39 -40 -75 -69 -78 -65 -3 3 2
15 12 26 36 40 -5 19 -69 -36 -36 -30 -70 -53 -75 -50 -5 4 -23 -5 -39 -19
-33 -27 -47 -23 -30 9 13 24 17 85 6 102 -4 6 6 21 24 34 l31 23 -16 -23 c-8
-12 -13 -28 -11 -35 3 -7 1 -16 -5 -20 -21 -13 -11 -26 12 -15 l22 11 -22 -20
c-13 -10 -23 -22 -23 -25 0 -12 16 -5 44 19 16 14 33 25 39 25 5 0 6 7 3 16
-4 9 -2 13 5 8 6 -4 15 0 20 7 4 7 12 10 16 5 4 -4 -6 -20 -22 -35 -39 -35
-60 -61 -49 -61 15 0 95 81 89 90 -3 5 0 12 6 16 8 4 9 3 5 -4 -10 -17 9 -15
24 3 6 8 20 13 29 12 22 -3 121 80 115 96 -2 7 16 32 41 56 25 24 42 47 39 52
-3 5 0 8 8 7 7 -2 12 3 11 10 -2 6 0 11 5 11 18 -3 32 2 32 12 0 5 -6 7 -12 3
-9 -5 -9 -2 1 9 15 18 26 23 16 7z m290 0 c-3 -5 -16 -15 -28 -21 -19 -9 -19
-8 3 10 28 23 34 26 25 11z m71 -40 c18 0 66 -57 55 -65 -6 -3 -9 -10 -6 -14
2 -5 -3 -15 -13 -23 -26 -22 -42 -30 -42 -20 0 5 10 14 23 21 25 14 34 51 11
51 -8 0 -13 6 -11 13 1 6 -4 11 -10 10 -7 -2 -13 2 -13 8 0 6 -8 8 -18 5 -14
-5 -18 0 -20 21 -2 25 -1 25 16 10 10 -10 23 -17 28 -17z m-676 6 c0 -11 -113
-96 -120 -91 -4 3 -10 -2 -14 -10 -3 -8 -13 -15 -23 -15 -15 0 -16 -2 -3 -10
13 -8 13 -10 -2 -10 -10 0 -16 7 -15 19 0 11 4 18 8 16 3 -3 14 4 24 15 12 13
21 17 25 10 4 -7 28 6 61 34 56 47 59 49 59 42z m574 -15 c-10 -10 -21 -16
-24 -14 -3 3 4 11 14 19 28 20 33 17 10 -5z m-642 -16 c-17 -14 -33 -25 -37
-25 -9 0 48 49 58 50 5 0 -5 -11 -21 -25z m153 -25 c-39 -39 -74 -58 -41 -21
10 11 13 20 7 22 -6 2 -1 10 11 18 21 13 22 13 9 -2 -19 -24 2 -21 24 3 10 11
21 20 24 20 3 0 -13 -18 -34 -40z m345 -2 c-8 -7 -21 -19 -27 -27 -11 -13 -13
-13 -13 1 0 8 10 20 23 26 30 14 34 14 17 0z m146 -26 c-17 -16 -18 -16 -5 5
7 12 15 20 18 17 3 -2 -3 -12 -13 -22z m-766 4 c0 -2 -8 -10 -17 -17 -16 -13
-17 -12 -4 4 13 16 21 21 21 13z m-40 -10 c0 -2 -8 -10 -17 -17 -16 -13 -17
-12 -4 4 13 16 21 21 21 13z m760 1 c0 -2 -10 -12 -22 -23 l-23 -19 19 23 c18
21 26 27 26 19z m-540 -42 c-19 -19 -28 -35 -21 -35 20 0 4 -17 -47 -51 -42
-27 -37 -21 21 27 11 9 16 18 13 21 -3 4 -15 -2 -26 -12 -11 -10 -22 -16 -25
-13 -3 3 11 18 32 34 21 16 47 36 57 46 34 31 31 19 -4 -17z m365 25 c-3 -5
-10 -10 -16 -10 -5 0 -9 5 -9 10 0 6 7 10 16 10 8 0 12 -4 9 -10z m399 1 c3
-5 -1 -11 -9 -14 -9 -4 -12 -1 -8 9 6 16 10 17 17 5z m-794 -15 c0 -2 -8 -10
-17 -17 -16 -13 -17 -12 -4 4 13 16 21 21 21 13z m580 -3 c0 -5 -17 -18 -38
-31 l-37 -23 35 30 c38 33 40 34 40 24z m-699 -46 c-10 -9 -11 -8 -5 6 3 10 9
15 12 12 3 -3 0 -11 -7 -18z m328 -78 c-149 -142 -157 -149 -164 -149 -4 0 -2
7 5 15 7 9 11 18 8 21 -3 2 -36 -24 -73 -58 -37 -35 -76 -66 -87 -70 -11 -5
-16 -13 -12 -19 4 -8 3 -9 -4 -5 -9 5 -9 12 0 26 7 10 16 16 20 13 9 -5 73 53
205 185 40 39 76 72 80 72 4 0 -19 -27 -52 -60 -33 -33 -55 -60 -50 -60 6 0
53 42 105 93 52 52 97 90 99 85 1 -5 -35 -45 -80 -89z m431 92 c0 -4 -25 -27
-55 -49 -49 -37 -54 -39 -51 -19 2 14 9 21 21 19 12 -2 15 1 9 10 -4 7 -4 10
1 6 4 -4 21 4 37 17 32 27 38 30 38 16z m25 -33 c-2 -24 -4 -48 -4 -55 -1 -6
-29 -33 -62 -60 -34 -26 -80 -65 -103 -85 -22 -21 -45 -38 -49 -38 -5 0 -6
-13 -2 -29 5 -23 1 -31 -21 -46 l-27 -18 22 32 c21 28 20 36 -2 32 -5 -1 -6 3
-3 8 4 5 0 11 -6 14 -10 3 -10 7 -1 19 7 8 9 18 5 22 -4 4 0 6 8 4 8 -2 14 3
12 10 -1 8 2 11 7 8 7 -5 46 25 125 96 34 31 10 29 -29 -2 -21 -16 -41 -30
-44 -30 -3 0 3 7 13 15 11 8 32 26 47 39 18 16 29 21 32 13 3 -8 11 -6 23 7
19 18 19 19 -1 12 -12 -3 -5 7 17 25 21 17 35 35 32 40 -3 5 -1 9 4 9 6 0 9
-19 7 -42z m-230 -7 c3 -5 2 -12 -3 -15 -5 -3 -9 1 -9 9 0 17 3 19 12 6z m81
2 c-2 -3 -8 -5 -12 -6 -3 -1 -24 -18 -44 -37 -95 -89 -120 -109 -124 -101 -3
5 12 21 34 36 22 15 40 31 40 34 0 4 14 15 30 25 17 9 27 22 24 28 -4 6 -2 8
3 5 6 -4 13 -1 16 6 3 8 12 14 21 14 9 0 14 -2 12 -4z m-191 -87 c-39 -35 -64
-51 -71 -45 -6 5 -14 7 -17 4 -4 -3 -5 -2 -2 2 3 4 14 8 25 10 19 3 30 11 89
60 52 45 34 21 -24 -31z m178 8 c-10 -7 -28 -17 -40 -20 -13 -4 -20 -11 -16
-18 3 -6 2 -8 -2 -3 -5 4 -17 0 -27 -10 -14 -13 -18 -13 -18 -2 0 17 80 75 97
71 8 -2 11 4 7 15 -5 17 -5 17 6 0 10 -15 8 -21 -7 -33z m137 -29 c-13 -14
-26 -22 -29 -19 -3 3 5 14 19 24 34 27 38 25 10 -5z m-305 -5 c-10 -11 -23
-20 -29 -20 -6 0 0 9 14 20 32 25 38 25 15 0z m324 -52 c-2 -45 -14 -68 -33
-68 -6 0 -3 5 8 11 15 9 16 13 5 20 -11 7 -12 12 -2 28 7 11 10 27 7 36 -3 8
-1 15 5 15 7 0 11 -16 10 -42z m-59 28 c0 -2 -19 -19 -42 -36 l-43 -32 40 36
c40 36 45 39 45 32z m-160 -11 c0 -2 -10 -10 -22 -16 -21 -11 -22 -11 -9 4 13
16 31 23 31 12z m175 -18 c-16 -12 -48 -37 -70 -56 -22 -19 -14 -8 18 23 31
31 63 56 70 56 6 0 -1 -11 -18 -23z m-462 6 c-7 -2 -13 -9 -13 -14 0 -6 5 -7
10 -4 6 3 10 1 10 -5 0 -6 -8 -9 -18 -6 -18 6 -69 -31 -58 -42 4 -3 17 5 31
18 14 13 25 20 25 15 0 -4 -8 -14 -17 -22 -17 -14 -17 -14 0 -9 11 3 16 2 12
-4 -4 -6 -14 -9 -23 -8 -11 2 -16 -3 -14 -12 2 -8 0 -12 -4 -8 -8 9 -39 -13
-115 -78 -37 -32 -32 -25 16 21 39 37 61 64 51 61 -17 -6 -17 -5 -5 11 8 10
23 25 34 34 11 9 31 26 44 38 13 12 29 21 35 20 6 0 6 -3 -1 -6z m-225 -30
c-9 -10 -13 -25 -10 -33 2 -8 1 -12 -3 -7 -5 4 -17 0 -27 -10 -11 -9 -18 -11
-18 -5 0 7 5 12 11 12 5 0 8 4 5 9 -4 5 6 19 21 30 34 25 41 26 21 4z m56 -3
c-14 -14 -56 -22 -49 -9 4 5 10 7 14 5 4 -3 13 -1 21 5 20 12 26 11 14 -1z
m635 -53 c-2 -2 -22 -15 -44 -31 l-40 -27 35 30 c19 17 39 31 44 31 5 0 7 -1
5 -3z m41 -7 c0 -5 -4 -10 -10 -10 -5 0 -10 5 -10 10 0 6 5 10 10 10 6 0 10
-4 10 -10z m-30 -19 c0 -5 -7 -12 -16 -15 -14 -5 -15 -4 -4 9 14 17 20 19 20
6z m32 -83 c-6 -14 -32 -8 -32 7 0 8 5 15 11 15 7 0 9 9 5 24 -3 12 -2 26 2
30 7 8 21 -63 14 -76z m-508 25 c-4 -16 -11 -30 -16 -31 -4 -2 -6 -8 -3 -12 3
-5 0 -12 -6 -16 -8 -5 -9 -3 -4 6 6 10 4 12 -8 7 -10 -3 -17 -2 -17 3 0 6 5
10 10 10 6 0 10 5 10 11 0 5 -5 7 -11 3 -8 -5 -8 -1 0 14 10 19 25 29 44 31 4
1 4 -11 1 -26z m-244 -18 c-21 -22 -48 -26 -34 -4 3 5 9 7 14 4 4 -3 13 2 20
10 7 8 15 15 18 15 3 0 -5 -11 -18 -25z m131 -8 c-10 -9 -11 -8 -5 6 3 10 9
15 12 12 3 -3 0 -11 -7 -18z m429 -32 c-24 -25 -50 -45 -58 -45 -12 0 84 88
98 89 2 1 -16 -19 -40 -44z m-569 -20 c5 3 6 -1 3 -10 -5 -12 -10 -13 -20 -5
-7 7 -10 19 -6 28 6 16 7 16 10 -1 2 -9 8 -15 13 -12z m659 22 c0 -2 -12 -14
-27 -28 l-28 -24 24 28 c23 25 31 32 31 24z m80 -11 c0 -2 -12 -11 -27 -20
l-28 -17 24 20 c23 21 31 25 31 17z m-500 -10 c0 -11 -19 -15 -25 -6 -3 5 1
10 9 10 9 0 16 -2 16 -4z m504 -21 c-5 -11 -2 -13 10 -9 9 3 16 1 16 -4 0 -6
-13 -10 -30 -10 -35 1 -37 6 -12 24 22 17 23 17 16 -1z m-494 -7 c0 -4 -11 -7
-25 -6 -33 3 -33 16 0 14 14 0 25 -4 25 -8z m430 -13 c0 -7 -30 -13 -34 -7 -3
4 4 9 15 9 10 1 19 0 19 -2z"/>
<path d="M777 956 c-4 -10 -1 -13 9 -9 7 3 14 9 14 14 0 14 -17 10 -23 -5z"/>
<path d="M509 615 c-1 -5 -1 -13 -1 -17 1 -3 -6 -12 -16 -20 -15 -12 -16 -11
-3 5 8 10 9 17 3 17 -17 0 -25 -21 -13 -33 17 -17 54 22 41 43 -5 8 -10 11
-11 5z"/>
<path d="M623 668 c-6 -7 -13 -20 -17 -28 -7 -13 -6 -13 6 0 8 8 20 21 28 28
8 6 9 12 3 12 -6 0 -15 -6 -20 -12z"/>
<path d="M615 620 c-3 -5 -2 -10 4 -10 5 0 13 5 16 10 3 6 2 10 -4 10 -5 0
-13 -4 -16 -10z"/>
<path d="M445 420 c-3 -5 -1 -10 4 -10 6 0 11 5 11 10 0 6 -2 10 -4 10 -3 0
-8 -4 -11 -10z"/>
<path d="M945 475 c-39 -35 -73 -65 -76 -65 -15 0 -81 -68 -72 -73 5 -3 25 8
44 26 44 40 130 116 158 139 17 15 29 38 18 38 -1 0 -34 -29 -72 -65z"/>
<path d="M845 490 c-3 -6 1 -7 9 -4 18 7 21 14 7 14 -6 0 -13 -4 -16 -10z"/>
<path d="M440 329 c0 -5 5 -7 10 -4 6 3 10 8 10 11 0 2 -4 4 -10 4 -5 0 -10
-5 -10 -11z"/>
<path d="M500 240 c0 -5 5 -10 10 -10 6 0 10 5 10 10 0 6 -4 10 -10 10 -5 0
-10 -4 -10 -10z"/>
</g>
</svg>
