<?xml version="1.0" standalone="no"?>
<!DOCTYPE svg PUBLIC "-//W3C//DTD SVG 20010904//EN"
 "http://www.w3.org/TR/2001/REC-SVG-20010904/DTD/svg10.dtd">
<svg version="1.0" xmlns="http://www.w3.org/2000/svg"
 width="390.000000pt" height="390.000000pt" viewBox="0 0 390.000000 390.000000"
 preserveAspectRatio="xMidYMid meet">
<metadata>
Created by potrace 1.11, written by Peter Selinger 2001-2013
</metadata>
<g transform="translate(0.000000,390.000000) scale(0.100000,-0.100000)"
fill="#000000" stroke="none">
<path d="M1665 3875 c-36 -17 -59 -19 -50 -5 13 21 -27 8 -81 -26 -31 -20 -53
-31 -50 -25 12 18 -2 12 -23 -10 -12 -13 -26 -19 -36 -15 -12 4 -20 -2 -28
-24 -7 -18 -21 -33 -34 -37 -13 -3 -26 -15 -29 -29 -3 -13 -10 -21 -15 -18 -5
3 -9 -2 -9 -10 0 -9 -4 -16 -9 -16 -5 0 -11 -14 -15 -31 -3 -17 -10 -28 -16
-24 -5 3 -10 -3 -10 -14 0 -12 -4 -21 -9 -21 -8 0 -21 -41 -27 -89 -2 -13 -8
-29 -13 -34 -7 -7 -9 -4 -6 12 2 12 0 19 -5 16 -4 -3 -7 -22 -6 -44 1 -26 -3
-37 -11 -34 -7 3 -10 -3 -6 -16 3 -12 1 -21 -3 -21 -5 0 -10 -28 -11 -62 -2
-91 -3 -99 -13 -93 -5 3 -5 -7 -1 -22 4 -16 6 -41 5 -56 -2 -16 1 -38 5 -50
10 -25 -11 -52 -34 -44 -14 6 -15 -9 -2 -30 4 -6 3 -14 -2 -17 -5 -4 -12 -2
-16 4 -13 20 -23 9 -16 -17 4 -16 12 -28 18 -28 6 0 15 -3 19 -7 8 -9 -31 -2
-49 8 -9 6 -9 4 1 -8 9 -11 10 -18 2 -23 -6 -3 -8 -10 -5 -15 3 -4 -2 -11 -11
-14 -9 -4 -14 -9 -11 -13 10 -9 38 18 30 30 -4 6 -1 7 7 2 9 -5 11 -4 6 3 -4
7 -2 12 3 12 17 0 13 -14 -10 -38 -11 -13 -17 -28 -13 -35 6 -9 5 -9 -7 0 -10
8 -19 9 -29 1 -12 -8 -12 -9 3 -4 9 3 18 2 18 -2 7 -39 5 -50 -9 -44 -11 4
-13 2 -7 -8 6 -10 4 -12 -11 -7 -18 7 -18 6 -1 -7 22 -17 23 -51 2 -42 -13 5
-14 2 -4 -16 10 -18 8 -24 -12 -39 -13 -9 -28 -15 -33 -12 -5 3 -6 1 -2 -5 8
-14 -14 -52 -31 -52 -7 0 -13 -5 -13 -11 0 -5 4 -8 9 -5 5 3 11 0 14 -7 6 -16
-29 -61 -37 -48 -4 5 0 13 8 18 12 7 12 11 -1 28 -15 19 -15 19 -8 -4 4 -14 3
-21 -3 -17 -5 3 -9 -4 -8 -17 0 -12 8 -25 16 -29 11 -5 9 -7 -7 -7 -12 -1 -25
-6 -29 -12 -4 -8 1 -9 17 -4 19 5 21 4 9 -4 -8 -6 -11 -11 -6 -11 5 0 3 -6 -3
-13 -6 -8 -7 -18 -3 -22 4 -5 1 -5 -7 0 -9 5 -12 3 -9 -6 3 -8 12 -13 19 -11
11 3 11 1 2 -9 -10 -10 -17 -9 -35 7 -14 11 -18 13 -10 3 6 -9 9 -19 5 -22 -3
-4 2 -7 13 -7 16 0 17 -2 4 -10 -8 -5 -11 -10 -6 -10 5 0 2 -8 -5 -17 -10 -11
-10 -14 -1 -9 7 4 12 1 12 -9 0 -10 -5 -14 -12 -9 -7 3 -1 -5 15 -20 35 -34
35 -43 0 -21 -28 18 -28 18 -10 -2 9 -11 14 -23 10 -28 -5 -4 -2 -5 6 0 10 6
12 2 6 -14 -5 -16 -3 -20 8 -15 11 4 14 -2 12 -20 -2 -14 2 -29 7 -33 7 -3 8
-1 4 5 -4 7 -2 12 3 12 14 0 14 -17 1 -25 -5 -3 -10 -11 -10 -17 0 -7 4 -7 14
1 11 9 12 5 6 -28 -7 -40 -1 -65 16 -59 5 2 10 -1 10 -7 1 -5 -2 -9 -6 -8 -14
4 3 -41 22 -58 19 -17 25 -35 8 -24 -6 3 -7 -1 -4 -9 3 -9 11 -14 17 -13 7 1
12 -8 11 -20 0 -13 5 -23 13 -23 7 0 13 -7 13 -16 0 -8 5 -12 10 -9 6 3 10 -1
10 -9 0 -9 7 -16 15 -16 9 0 18 -7 21 -15 4 -8 10 -13 14 -10 4 3 13 -2 20
-10 9 -10 9 -15 1 -15 -6 0 -11 4 -11 8 0 4 -12 8 -26 8 -21 0 -23 -2 -11 -10
9 -6 24 -17 34 -24 10 -7 11 -10 3 -7 -8 4 -7 0 4 -9 10 -8 22 -13 26 -11 5 3
10 -2 13 -10 4 -9 1 -12 -7 -9 -8 3 -17 0 -22 -7 -5 -8 -3 -10 6 -4 10 6 12 4
7 -8 -3 -10 -2 -17 2 -17 5 0 11 6 14 13 3 9 7 9 17 0 7 -6 19 -9 26 -6 8 3
14 0 14 -7 0 -6 -4 -8 -10 -5 -5 3 -10 0 -10 -7 0 -8 9 -14 20 -15 11 -1 18 2
15 7 -3 6 1 7 11 3 15 -5 15 -7 0 -15 -8 -5 -31 -9 -51 -10 -19 -1 -35 -6 -35
-11 0 -6 19 -7 47 -3 44 6 46 5 28 -10 -11 -8 -14 -13 -7 -9 8 4 12 -3 12 -25
0 -20 -4 -29 -11 -25 -6 4 -8 14 -5 22 3 8 1 11 -4 8 -13 -8 -13 -38 1 -52 7
-7 6 -12 -6 -17 -11 -4 -14 -2 -9 7 4 6 -1 4 -12 -5 -16 -14 -23 -15 -34 -5
-8 6 -6 2 4 -10 11 -13 24 -23 30 -23 6 0 5 4 -3 9 -9 6 -10 11 -2 15 6 4 11
2 11 -4 0 -6 5 -8 10 -5 19 12 10 -7 -12 -27 -13 -11 -17 -16 -9 -12 7 3 17 0
22 -7 12 -19 11 -29 -2 -29 -5 0 -7 5 -3 11 4 7 1 10 -7 7 -8 -3 -23 2 -34 11
-18 14 -18 14 1 -9 12 -14 19 -31 16 -39 -2 -8 0 -11 6 -7 6 3 13 2 16 -3 4
-5 2 -12 -3 -15 -14 -9 -42 5 -34 17 3 6 1 7 -5 3 -17 -10 -2 -36 22 -36 16 0
18 -2 7 -9 -8 -5 -11 -16 -8 -24 4 -10 1 -14 -7 -11 -7 3 -18 -7 -24 -21 -10
-21 -9 -27 4 -32 8 -3 13 -12 10 -19 -3 -8 -2 -14 3 -14 4 0 8 -7 8 -15 0 -9
-6 -14 -13 -11 -7 3 -10 -2 -7 -15 5 -17 3 -18 -21 -9 l-26 10 15 -30 c16 -31
29 -41 19 -15 -4 8 -1 15 6 15 8 0 11 -9 8 -25 -4 -16 0 -29 10 -34 13 -7 12
-10 -7 -16 -20 -6 -21 -25 0 -25 6 0 7 5 4 10 -3 6 -1 10 4 10 13 0 13 -2 2
-34 -8 -19 -6 -28 6 -38 9 -7 14 -8 10 -2 -3 6 0 11 8 11 13 0 13 -3 0 -17 -8
-9 -15 -24 -15 -33 0 -9 -4 -19 -10 -22 -5 -3 -10 -12 -10 -18 0 -7 5 -4 11 6
5 9 14 17 20 17 5 0 2 -11 -6 -24 -12 -18 -13 -26 -4 -32 7 -4 9 -3 5 4 -3 6
-2 13 3 16 11 7 9 -13 -3 -33 -6 -10 -5 -12 2 -7 7 4 12 2 12 -3 0 -6 5 -11
11 -11 5 0 7 5 3 12 -5 7 -3 8 6 3 10 -6 9 -11 -5 -22 -14 -9 -15 -13 -4 -13
10 -1 9 -4 -4 -11 -10 -6 -25 -8 -32 -5 -12 4 -13 2 -2 -14 6 -11 20 -20 31
-20 16 0 17 -2 5 -17 -10 -11 -10 -14 -2 -9 7 4 13 2 13 -3 0 -6 -6 -11 -12
-11 -9 0 -8 -3 2 -9 8 -6 18 -7 24 -4 5 3 6 1 2 -6 -4 -6 -12 -9 -17 -6 -5 3
-6 -1 -3 -10 5 -12 10 -13 20 -4 11 9 13 4 8 -31 -4 -27 -3 -40 4 -36 11 6 20
-29 14 -57 -2 -10 -8 -14 -15 -10 -8 4 -7 1 1 -9 11 -14 10 -16 -10 -12 l-23
5 23 -10 c12 -6 22 -18 22 -26 0 -12 6 -15 20 -10 12 4 20 2 20 -5 0 -6 -4 -8
-10 -5 -5 3 -10 1 -10 -4 0 -6 5 -11 11 -11 5 0 7 -5 4 -10 -4 -6 -2 -17 5
-25 7 -9 8 -15 1 -19 -6 -4 -7 -16 -2 -29 4 -12 6 -28 3 -36 -3 -9 0 -11 9 -7
8 4 6 1 -3 -7 -10 -8 -15 -17 -11 -20 3 -4 1 -7 -6 -7 -7 0 -9 -5 -6 -10 6 -9
-10 -14 -42 -13 -6 0 -9 -5 -7 -11 3 -7 -8 -25 -23 -41 -15 -16 -23 -26 -17
-22 8 5 9 -5 4 -34 -6 -35 -4 -43 19 -68 15 -15 38 -32 51 -36 36 -12 120 -12
120 0 0 6 4 4 9 -4 5 -7 13 -11 17 -8 5 2 30 2 57 -3 26 -4 47 -3 47 1 0 4 8
8 18 8 50 2 58 6 53 33 0 5 6 8 15 8 8 0 13 4 9 9 -3 5 -1 12 5 16 6 4 7 11 4
17 -5 7 -2 9 8 5 11 -4 15 0 13 11 -4 28 6 34 22 15 8 -10 12 -13 8 -6 -5 11
17 18 85 26 14 1 31 6 38 10 8 5 12 2 12 -8 0 -9 3 -14 8 -11 4 2 15 -1 24 -8
20 -15 31 -73 15 -80 -8 -3 -8 -5 1 -5 7 -1 10 -5 7 -11 -3 -5 -1 -10 6 -10 6
0 9 -8 6 -20 -3 -10 -2 -19 2 -18 3 1 21 -6 39 -15 19 -11 32 -13 32 -7 0 6 5
8 10 5 6 -4 8 -10 5 -15 -3 -4 8 -14 24 -21 16 -7 27 -17 25 -21 -3 -4 1 -5 9
-2 8 3 18 1 22 -5 4 -8 12 -8 26 -1 10 6 19 7 19 3 0 -4 4 -2 9 6 6 8 14 10
22 5 20 -12 40 -14 33 -2 -4 6 2 5 15 -1 12 -7 21 -8 21 -2 0 5 9 13 20 16 11
4 18 10 15 15 -3 5 5 12 19 16 14 3 28 16 32 27 4 12 12 25 18 29 8 6 8 8 -1
8 -6 0 -10 8 -9 18 2 13 13 17 49 17 26 0 47 3 47 7 0 4 14 6 30 4 17 -2 33 0
35 4 3 5 25 7 50 7 25 -1 47 3 48 8 2 6 10 5 19 -3 12 -9 18 -10 23 -2 5 8 10
8 20 0 10 -8 15 -8 20 1 6 8 10 7 16 -2 7 -11 11 -10 23 6 9 11 16 15 16 8 0
-13 38 -12 59 2 10 6 12 4 6 -5 -6 -10 -4 -12 7 -7 9 3 21 0 28 -6 10 -9 11
-9 6 1 -4 6 -2 12 3 12 6 0 13 0 16 0 2 0 20 16 39 35 20 19 42 35 51 35 9 0
18 7 21 15 4 8 10 12 15 9 5 -3 8 -2 7 3 -4 13 22 54 32 48 4 -3 6 3 3 13 -2
11 2 25 10 33 7 8 12 20 9 28 -3 9 0 11 8 6 9 -6 11 -4 5 4 -12 21 -13 81 -1
81 6 0 4 5 -4 10 -12 8 -12 10 -1 10 10 0 10 6 -4 26 -9 15 -13 24 -8 21 5 -4
10 0 10 8 0 8 -5 11 -10 8 -6 -4 -8 3 -5 15 4 12 2 22 -4 22 -5 0 -7 4 -4 9 4
5 0 12 -6 14 -10 4 -10 6 0 6 10 1 10 5 -2 17 -9 8 -14 19 -11 24 3 5 1 11 -5
15 -5 3 -10 12 -10 18 0 7 4 6 10 -3 8 -12 10 -11 7 6 -1 11 -13 33 -25 48
-12 16 -19 32 -16 37 3 5 0 9 -5 9 -6 0 -11 9 -11 19 0 10 -7 22 -16 25 -8 3
-12 10 -9 16 3 5 2 10 -4 10 -5 0 -16 13 -24 28 -11 23 -11 29 -1 29 7 0 11
-4 9 -8 -3 -3 3 -13 13 -20 15 -12 16 -12 5 2 -10 12 -10 18 0 28 6 7 8 12 2
11 -5 -2 -17 -2 -25 -1 -13 1 -13 2 0 11 13 8 12 10 -3 10 -10 0 -16 4 -13 8
3 5 -4 15 -14 22 -14 10 -16 17 -8 27 5 7 15 10 20 7 6 -4 2 5 -7 20 -10 14
-13 26 -9 26 5 0 -2 6 -16 13 -14 8 -24 19 -22 25 1 7 -1 11 -5 11 -19 -3 -33
2 -33 12 0 5 5 7 11 4 6 -4 5 2 -2 13 -7 12 -15 19 -19 17 -3 -1 -11 3 -18 11
-8 9 -9 14 -2 14 6 0 8 5 5 10 -4 6 -11 7 -17 4 -6 -4 -8 -3 -5 3 4 6 18 9 31
8 18 -2 23 1 19 12 -5 12 -7 12 -14 1 -5 -7 -9 -8 -9 -3 0 6 -9 11 -19 11 -11
0 -17 -4 -15 -8 3 -4 1 -8 -5 -8 -5 0 -13 9 -16 20 -4 11 -11 18 -16 15 -5 -4
-9 -1 -9 6 0 6 8 9 19 6 14 -3 19 0 18 14 -1 11 -5 15 -12 9 -13 -11 -45 12
-45 34 0 9 -5 16 -11 16 -6 0 -21 8 -34 19 l-24 18 24 13 c31 17 26 24 -8 11
-31 -12 -47 1 -47 40 0 5 -3 9 -7 7 -5 -2 -24 12 -43 30 -30 29 -31 32 -10 23
l25 -12 -24 20 c-12 12 -28 18 -34 14 -6 -3 -7 -1 -3 5 4 7 19 10 34 6 20 -4
17 0 -13 15 -22 11 -36 20 -32 21 4 0 -4 20 -17 45 -24 42 -24 50 -3 46 5 -1
6 3 2 9 -3 6 -10 8 -15 5 -4 -3 -10 1 -13 9 -4 9 2 12 18 11 19 -3 23 1 20 21
-1 13 2 24 6 24 5 0 9 -5 9 -10 0 -6 10 -4 23 5 13 8 27 13 30 10 4 -3 5 -2 2
2 -3 3 1 13 7 22 8 9 3 8 -10 -3 -22 -19 -22 -19 -16 -1 5 12 4 16 -4 11 -8
-5 -10 -2 -5 9 5 13 7 14 14 3 8 -12 13 -4 10 15 -1 4 7 3 17 -2 14 -8 19 -6
19 5 0 7 -7 14 -16 15 -11 0 -12 2 -3 6 6 2 10 8 7 13 -3 4 4 6 15 3 12 -3 22
1 26 11 3 9 10 14 14 11 5 -3 7 3 5 12 -1 10 1 23 6 29 5 7 3 11 -6 11 -8 0
-12 -3 -10 -7 2 -3 -5 -6 -15 -7 -11 -1 -22 2 -25 8 -3 5 1 6 9 3 10 -4 18 1
22 11 4 9 13 14 20 11 8 -3 14 1 14 10 0 8 4 13 8 10 5 -3 9 1 9 8 0 8 -5 12
-12 10 -6 -3 -11 4 -11 15 0 15 3 17 13 9 11 -8 12 -7 7 7 -5 11 -4 16 3 12 5
-3 10 -1 10 6 0 7 2 17 3 22 1 6 2 16 1 24 -1 11 -4 11 -16 1 -9 -7 -15 -8
-15 -2 0 5 7 13 16 16 8 3 13 10 9 15 -3 5 -1 12 4 15 5 4 8 -2 6 -11 -3 -21
12 -43 29 -43 6 0 5 4 -3 9 -20 13 -23 41 -5 48 8 3 14 9 14 15 0 5 -4 6 -10
3 -5 -3 -10 1 -10 10 0 9 -4 13 -10 10 -6 -4 -7 1 -3 11 5 13 3 15 -7 9 -10
-6 -11 -4 -4 6 14 22 11 53 -6 67 -13 11 -12 12 6 3 16 -8 21 -18 19 -41 -1
-17 1 -33 6 -35 4 -3 6 4 4 16 -3 16 0 20 13 15 14 -5 13 -3 -2 9 -14 11 -16
15 -5 15 8 0 10 3 4 8 -14 10 -15 62 -1 62 6 0 5 4 -3 9 -8 5 -23 8 -33 6 -10
-2 -16 0 -13 6 4 5 9 7 13 5 4 -2 16 3 27 11 19 15 19 15 -5 8 -20 -6 -23 -5
-12 6 6 7 12 23 12 35 0 26 46 61 53 41 4 -7 6 -6 6 4 1 9 12 21 26 27 14 6
25 16 25 22 0 6 4 9 9 6 5 -4 25 10 45 29 20 19 36 33 36 30 0 -8 128 125 150
155 12 17 26 27 32 24 6 -4 8 -3 5 3 -7 11 50 79 63 76 4 -1 5 7 2 19 -4 16
-2 19 8 13 8 -5 11 -4 6 3 -3 6 3 27 15 46 11 20 18 36 15 36 -4 0 6 13 22 28
16 15 26 34 24 41 -3 9 0 11 8 6 9 -6 11 -4 5 5 -4 7 -3 15 3 19 8 5 7 14 -2
33 -14 26 -14 26 20 24 19 -2 31 1 28 6 -3 5 -13 7 -21 4 -8 -3 -11 -1 -8 4 3
6 13 10 21 10 8 0 13 4 9 9 -3 6 -17 6 -34 1 -19 -5 -33 -4 -41 3 -10 9 -11 9
-5 -3 8 -13 6 -13 -7 -2 -27 21 -238 31 -368 18 -36 -4 -81 -9 -100 -11 -19
-2 -35 -5 -35 -5 0 -1 -11 -3 -25 -4 -14 -2 -42 -8 -63 -15 -21 -7 -44 -10
-52 -7 -8 3 -17 1 -20 -4 -5 -9 -15 -8 -52 7 -10 3 -26 5 -35 4 -12 -1 -15 3
-11 20 5 17 3 20 -8 15 -9 -5 -8 -3 2 6 8 7 18 21 22 31 6 17 5 17 -15 2 -26
-17 -52 -20 -42 -4 4 8 -1 9 -17 4 -23 -7 -23 -7 -4 8 17 13 17 15 3 13 -10
-1 -21 -5 -24 -9 -4 -4 -12 -7 -17 -7 -6 0 0 12 14 27 l24 27 -29 -22 c-30
-23 -52 -29 -41 -12 3 6 1 10 -4 10 -6 0 -11 -5 -11 -12 0 -6 -3 -8 -7 -5 -3
4 2 17 13 29 12 13 13 18 4 13 -26 -16 -39 -14 -32 3 5 15 4 15 -11 3 -13 -10
-17 -10 -17 -1 0 7 -7 10 -14 7 -10 -4 -13 -1 -10 7 4 9 -3 13 -21 11 -22 -3
-24 -1 -14 11 7 8 7 14 1 14 -5 0 -15 -6 -21 -14 -7 -8 -19 -13 -28 -12 -18 3
-36 51 -27 70 3 6 -4 0 -15 -13 -12 -13 -21 -35 -21 -50 0 -19 -3 -22 -9 -12
-5 7 -13 11 -18 8 -5 -3 -20 4 -34 17 -13 12 -31 20 -38 18 -8 -3 -11 0 -7 6
3 6 -3 14 -14 17 -17 5 -19 10 -10 20 7 8 8 19 4 26 -4 8 -11 2 -18 -16 -15
-35 -46 -43 -46 -11 0 12 -11 33 -25 46 -21 20 -25 21 -31 6 -3 -9 -11 -16
-16 -16 -10 0 -6 135 6 184 4 16 2 34 -4 41 -15 18 -22 108 -11 137 5 14 6 30
1 37 -6 11 -9 11 -13 0 -5 -13 -11 22 -8 48 1 7 -7 9 -20 6 -18 -5 -20 -3 -14
16 3 11 5 21 3 20 -2 0 -16 -7 -33 -14z m145 -502 c-1 -24 -2 -26 -11 -10 -5
9 -7 22 -4 27 10 17 15 11 15 -17z m90 -37 c0 -3 -4 -8 -10 -11 -5 -3 -10 -1
-10 4 0 6 5 11 10 11 6 0 10 -2 10 -4z m150 -16 c0 -5 -5 -10 -11 -10 -5 0 -7
5 -4 10 3 6 8 10 11 10 2 0 4 -4 4 -10z m1094 -263 c3 3 6 4 6 1 0 -3 -8 -12
-17 -19 -10 -7 -15 -9 -11 -5 4 5 0 15 -10 23 -15 13 -15 13 4 4 12 -6 24 -7
28 -4z m-2086 -362 c-3 -3 -9 2 -12 12 -6 14 -5 15 5 6 7 -7 10 -15 7 -18z
m-18 -25 c-13 -9 -13 -11 0 -20 10 -7 11 -10 3 -11 -7 -1 -17 -3 -23 -4 -5 -1
-14 -3 -20 -4 -5 0 -10 -6 -10 -12 0 -5 5 -7 12 -3 7 4 8 3 4 -5 -4 -6 -11 -9
-16 -6 -4 3 -11 -1 -13 -7 -4 -10 -6 -10 -6 0 -1 6 8 21 19 32 11 11 17 20 13
20 -12 1 29 30 41 30 6 0 4 -5 -4 -10z m-68 -127 c-6 -2 -10 -9 -6 -14 3 -5 0
-9 -5 -9 -12 0 -14 13 -4 23 3 4 11 7 17 6 6 0 5 -3 -2 -6z m-25 -68 c0 -8 -4
-12 -9 -9 -5 3 -6 10 -3 15 9 13 12 11 12 -6z m1679 -160 c1 -14 -2 -25 -7
-25 -5 0 -8 6 -6 13 1 6 -5 11 -13 9 -10 -1 -9 2 4 13 11 8 20 15 20 15 1 0 2
-11 2 -25z m-2 -153 c2 -4 -4 -8 -15 -8 -10 0 -19 4 -19 8 0 4 6 8 14 8 8 0
17 -4 20 -8z m-1654 -62 c0 -5 -5 -10 -11 -10 -5 0 -7 5 -4 10 3 6 8 10 11 10
2 0 4 -4 4 -10z m44 -79 c4 -5 -3 -7 -14 -4 -23 6 -26 13 -6 13 8 0 17 -4 20
-9z m1546 -104 c0 -2 -9 -12 -19 -21 -13 -12 -21 -14 -26 -6 -4 6 -1 9 7 8 7
-2 12 3 11 10 -2 6 4 12 12 12 8 0 15 -2 15 -3z m-1377 -602 c-3 -9 -8 -14
-10 -11 -3 3 -2 9 2 15 9 16 15 13 8 -4z m27 -170 c0 -2 -9 -3 -19 -2 -11 0
-18 5 -15 9 4 6 34 0 34 -7z m-10 -75 c-6 -11 -13 -20 -16 -20 -2 0 0 9 6 20
6 11 13 20 16 20 2 0 0 -9 -6 -20z m1630 -5 c0 -12 -19 -12 -23 0 -4 9 -1 12
9 8 7 -3 14 -7 14 -8z m126 -312 c-7 -7 -26 7 -26 19 0 6 6 6 15 -2 9 -7 13
-15 11 -17z m-1626 -253 c0 -5 -5 -10 -11 -10 -5 0 -7 5 -4 10 3 6 8 10 11 10
2 0 4 -4 4 -10z"/>
<path d="M1053 2925 c0 -8 4 -12 9 -9 5 3 6 10 3 15 -9 13 -12 11 -12 -6z"/>
<path d="M875 2509 c-4 -6 -5 -12 -2 -15 2 -3 7 2 10 11 7 17 1 20 -8 4z"/>
<path d="M890 2469 c0 -5 5 -7 10 -4 6 3 10 8 10 11 0 2 -4 4 -10 4 -5 0 -10
-5 -10 -11z"/>
<path d="M855 2380 c3 -5 8 -10 11 -10 2 0 4 5 4 10 0 6 -5 10 -11 10 -5 0 -7
-4 -4 -10z"/>
<path d="M917 2139 c7 -7 15 -10 18 -7 3 3 -2 9 -12 12 -14 6 -15 5 -6 -5z"/>
<path d="M2545 1440 c3 -5 8 -10 11 -10 2 0 4 5 4 10 0 6 -5 10 -11 10 -5 0
-7 -4 -4 -10z"/>
<path d="M1140 1340 c0 -5 5 -10 10 -10 6 0 10 5 10 10 0 6 -4 10 -10 10 -5 0
-10 -4 -10 -10z"/>
<path d="M1150 1065 c0 -8 2 -15 4 -15 2 0 6 7 10 15 3 8 1 15 -4 15 -6 0 -10
-7 -10 -15z"/>
<path d="M2995 380 c-3 -5 -2 -10 4 -10 5 0 13 5 16 10 3 6 2 10 -4 10 -5 0
-13 -4 -16 -10z"/>
<path d="M2880 250 c-8 -5 -12 -12 -9 -15 4 -3 12 1 19 10 14 17 11 19 -10 5z"/>
</g>
</svg>
